<svg xmlns="http://www.w3.org/2000/svg" viewBox="0 0 24 24" id="Squarespace">
  <path d="M4.938 16.914a4.93 4.93 0 0 1-3.49-1.437A4.868 4.868 0 0 1 0 12.001c0-1.314.514-2.55 1.447-3.479l5.357-5.334a2.729 2.729 0 0 1 3.843.001.498.498 0 0 1 0 .708L3.72 10.793c-.324.322-.502.751-.502 1.207s.179.885.503 1.207c.67.668 1.761.668 2.433 0l7.062-7.028a1.612 1.612 0 0 1 2.274.001c.304.303.471.706.471 1.135s-.167.832-.471 1.135l-7.042 7.01-.019.019a4.935 4.935 0 0 1-3.491 1.435zM8.726 3.396c-.44 0-.881.166-1.216.5L2.152 9.23C1.409 9.971 1 10.954 1 12s.409 2.029 1.152 2.769a3.962 3.962 0 0 0 5.554.019l.017-.018 7.062-7.028c.114-.113.177-.266.177-.427s-.062-.313-.178-.428a.612.612 0 0 0-.861 0L6.86 13.916a2.729 2.729 0 0 1-3.843 0c-.516-.512-.799-1.192-.799-1.916s.283-1.403.797-1.916l6.519-6.488a1.738 1.738 0 0 0-.808-.2zm6.547 18.205a2.716 2.716 0 0 1-1.922-.791.498.498 0 0 1 0-.708l6.925-6.892a1.698 1.698 0 0 0 0-2.415 1.728 1.728 0 0 0-2.434 0l-7.062 7.028a1.613 1.613 0 0 1-2.275-.001 1.595 1.595 0 0 1-.472-1.138c0-.428.168-.831.473-1.133l7.063-7.028a4.959 4.959 0 0 1 6.982 0A4.865 4.865 0 0 1 24 11.999c0 1.314-.514 2.55-1.447 3.479l-5.359 5.333c-.53.527-1.226.79-1.921.79zm-.807-1.199a1.73 1.73 0 0 0 2.022-.3l5.359-5.333C22.591 14.029 23 13.046 23 12s-.409-2.029-1.152-2.769a3.958 3.958 0 0 0-5.572 0L9.214 16.26a.595.595 0 0 0 0 .854.613.613 0 0 0 .863-.001l7.062-7.028a2.73 2.73 0 0 1 3.844 0c.514.511.797 1.19.798 1.914a2.69 2.69 0 0 1-.798 1.919l-6.517 6.484z" fill="#ffffff" class="color000000 svgShape"></path>
  <path d="M9.645 21.602a4.933 4.933 0 0 1-3.491-1.437c-.305-.303-.473-.706-.473-1.136s.168-.833.473-1.136a1.613 1.613 0 0 1 2.274 0 1.729 1.729 0 0 0 2.434 0l7.062-7.028a1.612 1.612 0 0 1 2.746 1.134c0 .43-.168.833-.473 1.137l-7.062 7.029a4.933 4.933 0 0 1-3.49 1.437zM7.29 18.425a.615.615 0 0 0-.432.178.602.602 0 0 0-.001.853 3.958 3.958 0 0 0 5.572.001l7.062-7.029a.602.602 0 0 0 0-.853.611.611 0 0 0-.862-.001l-7.063 7.029a2.73 2.73 0 0 1-3.842.002.61.61 0 0 0-.434-.18zm12.555-5.644h.01-.01zm-14.909.823a1.609 1.609 0 0 1-1.61-1.605c0-.429.168-.831.473-1.134l7.062-7.029a4.958 4.958 0 0 1 6.981 0c.305.304.473.707.473 1.136s-.168.832-.473 1.136a1.616 1.616 0 0 1-2.273 0l-.017-.017a1.729 1.729 0 0 0-2.418.017l-7.062 7.028a1.606 1.606 0 0 1-1.136.468zm9.415-10.206a3.938 3.938 0 0 0-2.785 1.146l-7.062 7.029a.603.603 0 0 0 0 .854.614.614 0 0 0 .863 0l7.062-7.028a2.732 2.732 0 0 1 3.844-.002l.015.015a.612.612 0 0 0 1.028-.44.6.6 0 0 0-.178-.427 3.943 3.943 0 0 0-2.787-1.147zm-3.138.792h.01-.01z" fill="#ffffff" class="color000000 svgShape"></path>
</svg>
